{
  "asset": {
    "version": "2.0"
  },
  "extensionsUsed": [
    "KHR_materials_unlit"
  ],
  "extensionsRequired": [
    "KHR_materials_unlit"
  ],
  "buffers": [
    {
      "uri": "data:application/octet-stream;base64,",
      "byteLength": 68
    }
  ],
  "bufferViews": [
    {
      "buffer": 0,
      "byteOffset": 0,
      "byteLength": 48
    },
    {
      "buffer": 0,
      "byteOffset": 48,
      "byteLength": 8
    },
    {
      "buffer": 0,
      "byteOffset": 56,
      "byteLength": 12
    }
  ],
  "accessors": [
    {
      "bufferView": 0,
      "componentType": 5126,
      "count": 4,
      "type": "VEC3",
      "min": [
        0,
        0,
        0
      ],
      "max": [
        1,
        1,
        0
      ]
    },
    {
      "bufferView": 1,
      "componentType": 5123,
      "count": 4,
      "type": "SCALAR"
    },
    {
      "bufferView": 2,
      "componentType": 5123,
      "count": 6,
      "type": "SCALAR"
    }
  ],
  "materials": [
    {
      "extensions": {
        "KHR_materials_unlit": {}
      },
      "pbrMetallicRoughness": {
        "baseColorFactor": [
          1,
          1,
          1,
          1
        ]
      }
    }
  ],
  "meshes": [
    {
      "name": "AllPrimitiveModes",
      "primitives": [
        {
          "attributes": {
            "POSITION": 0
          },
          "indices": 1,
          "mode": 0,
          "material": 0
        },
        {
          "attributes": {
            "POSITION": 0
          },
          "indices": 1,
          "mode": 1,
          "material": 0
        },
        {
          "attributes": {
            "POSITION": 0
          },
          "indices": 1,
          "mode": 2,
          "material": 0
        },
        {
          "attributes": {
            "POSITION": 0
          },
          "indices": 1,
          "mode": 3,
          "material": 0
        },
        {
          "attributes": {
            "POSITION": 0
          },
          "indices": 2,
          "mode": 4,
          "material": 0
        },
        {
          "attributes": {
            "POSITION": 0
          },
          "indices": 1,
          "mode": 5,
          "material": 0
        },
        {
          "attributes": {
            "POSITION": 0
          },
          "indices": 1,
          "mode": 6,
          "material": 0
        }
      ]
    }
  ],
  "nodes": [
    {
      "mesh": 0
    }
  ],
  "scenes": [
    {
      "nodes": [
        0
      ]
    }
  ],
  "scene": 0
}
