{
  "asset": {"version": "2.0"},
  "extensionsUsed": ["KHR_materials_emissive_strength"],
  "scene": 0,
  "scenes": [{"nodes": [0]}],
  "nodes": [{"mesh": 0}],
  "buffers": [{
    "uri": "data:application/octet-stream;base64,",
    "byteLength": 156
  }],
  "bufferViews": [
    {"buffer": 0, "byteOffset": 0, "byteLength": 36},
    {"buffer": 0, "byteOffset": 36, "byteLength": 36},
    {"buffer": 0, "byteOffset": 144, "byteLength": 12}
  ],
  "accessors": [
    {"bufferView": 0, "componentType": 5126, "count": 3, "type": "VEC3",
     "min": [-1, -1, 0], "max": [1, 1, 0]},
    {"bufferView": 1, "componentType": 5126, "count": 3, "type": "VEC3"},
    {"bufferView": 2, "componentType": 5125, "count": 3, "type": "SCALAR"}
  ],
  "meshes": [{"primitives": [{"attributes": {"POSITION": 0, "NORMAL": 1},
                              "indices": 2, "material": 0}]}],
  "materials": [{
    "pbrMetallicRoughness": {"baseColorFactor": [0.2, 0.3, 0.4, 0.5]},
    "emissiveFactor": [1.0, 0.5, 0.25],
    "extensions": {"KHR_materials_emissive_strength": {"emissiveStrength": 8.0}}
  }]
}
